<svg xmlns="http://www.w3.org/2000/svg" viewBox="0 0 43.871 45.383">
  <defs>
    <style>
      .cls-1, .cls-2 {
        fill: #fff;
      }

      .cls-1 {
        fill-rule: evenodd;
      }
    </style>
  </defs>
  <g id="Group_101" data-name="Group 101" transform="translate(0 -0.028)">
    <g id="Group_41" data-name="Group 41" transform="translate(0 21.506)">
      <g id="Group_40" data-name="Group 40" transform="translate(8.644)">
        <path id="Path_56" data-name="Path 56" class="cls-1" d="M107.527,201.512c-.316,1.254-1.864,2.235-1.025,3.194a2.918,2.918,0,0,1-.305,3.739c-.927.949.24,2.115.4,3.434.011,1.33-.8,1.723-1.635,2.5-.861.785,0,.861-.556,3.129s-4.132,3.434-9.518,3.434c-5.364,0-15.568-2.268-15.568-2.268s-.076-10.652,0-15.83A16.837,16.837,0,0,0,83.88,198.2c1.276-1.788,1.864-.981,10.706-.981.643,0,5.833,0,8.5.153,2.638.153,4.732,2.889,4.437,4.143Z" transform="translate(-79.289 -197.035)"/>
      </g>
      <path id="Path_57" data-name="Path 57" class="cls-1" d="M7.37,259.489a2.7,2.7,0,0,1-2.693,2.693H2.693A2.7,2.7,0,0,1,0,259.489v-11.8A2.692,2.692,0,0,1,2.693,245h2a2.692,2.692,0,0,1,2.693,2.693v11.8Z" transform="translate(0 -239.771)"/>
    </g>
    <path id="Path_58" data-name="Path 58" class="cls-2" d="M153.459,28.24c-4.306-1.167-6.629-4.11-6.029-7.9a2.122,2.122,0,0,1,.033-.24A23.335,23.335,0,0,0,148,15.081a39.393,39.393,0,0,0-2.191-13.028l-.305-.894.894-.294c3.521-1.156,7.621-1.112,12.211.12a46.547,46.547,0,0,1,13.944,6.759l.959.709-.916.763c-.076.065-7.741,6.509-10.6,15.1l-.065.207-.153.153C158.779,27.728,155.988,28.927,153.459,28.24Zm-4.121-7.915c-.131,1.025-1.21,4.394,4.6,6.116,1.788.48,3.925-.491,6.345-2.911A36.37,36.37,0,0,1,166.945,12.3a44.918,44.918,0,0,1,3.532-3.707,45.246,45.246,0,0,0-12.363-5.8,20.09,20.09,0,0,0-10.237-.414,40.952,40.952,0,0,1,1.984,12.8A24.115,24.115,0,0,1,149.338,20.325Z" transform="translate(-129.637 0)"/>
    <circle id="Ellipse_3" data-name="Ellipse 3" class="cls-2" cx="4.819" cy="4.819" r="4.819" transform="translate(21.058 21.702) rotate(-84.585)"/>
    <path id="Path_59" data-name="Path 59" class="cls-1" d="M168.541,17.6a18.544,18.544,0,0,0,9.42-6.563c-1.832-3.194-10.761-.458-10.761-.458Z" transform="translate(-148.971 -8.432)"/>
    <path id="Path_60" data-name="Path 60" class="cls-1" d="M308.69,43.755S303.38,37.7,305.125,32.7c4.884.9,9.234,5.527,9.234,5.527Z" transform="translate(-271.546 -29.11)"/>
    <path id="Path_61" data-name="Path 61" class="cls-1" d="M61.725,46.6A29.548,29.548,0,0,0,57.8,50.383l4.961,5.146a18.4,18.4,0,0,0,2.148-3.151A41.867,41.867,0,0,0,61.725,46.6Z" transform="translate(-51.498 -41.495)"/>
    <path id="Path_62" data-name="Path 62" class="cls-2" d="M47.327,56.676c.022-.076.033-.174.044-.229l-.12-.207v-.327c0-.011,0-.36-.065-1-.294-.545-.654-1.156-1.068-1.821a40.633,40.633,0,0,0-8.656-9.649,17.2,17.2,0,0,1,4.219-3.271c-.218-.349-.447-.7-.687-1.058l-.349-.512a18.352,18.352,0,0,0-5.255,4.383l-.589.741.741.589a39.641,39.641,0,0,1,8.951,9.714,23.758,23.758,0,0,1,2.3,4.492l.076.229.174.164a.652.652,0,0,0,.076.065A7.6,7.6,0,0,1,47.327,56.676Z" transform="translate(-31.006 -34.367)"/>
    <path id="Path_63" data-name="Path 63" class="cls-2" d="M97.217,33.167a9.584,9.584,0,0,1-.12-4.47,2.3,2.3,0,0,1,.065-.338,18.169,18.169,0,0,0,.4-2.595c-.087-.392-.174-.807-.294-1.232a40.85,40.85,0,0,0-5.266-11.84,16.379,16.379,0,0,1,3.718-1.5c-.076-.218-.142-.447-.218-.665L95.135,9.4a17.476,17.476,0,0,0-4.95,2.213l-.785.523.523.785a39.28,39.28,0,0,1,5.517,12,22.434,22.434,0,0,1,.8,4.982v.24l.12.218C96.465,30.529,96.672,34.508,97.217,33.167Z" transform="translate(-79.653 -8.35)"/>
    <path id="Path_64" data-name="Path 64" class="cls-2" d="M245.929.9c.4.109.807.229,1.21.349.229.044.458.087.676.142l.305-.981L246.932.337C246.8.326,245.45.25,243.4.326,244.218.479,245.068.664,245.929.9Z" transform="translate(-216.864 -0.236)"/>
    <path id="Path_65" data-name="Path 65" class="cls-1" d="M116.209,20.2a29.7,29.7,0,0,0-3.609,1.886l3.14,6.421a16.307,16.307,0,0,0,2.148-1.57A43.59,43.59,0,0,0,116.209,20.2Z" transform="translate(-100.324 -17.973)"/>
    <path id="Path_66" data-name="Path 66" class="cls-2" d="M285.417,12.436l.6-.85L284.9,11.15a47.409,47.409,0,0,0-7.3-2.05A44.307,44.307,0,0,1,285.417,12.436Z" transform="translate(-247.335 -8.083)"/>
  </g>
</svg>
