<svg id="Group_100" data-name="Group 100" xmlns="http://www.w3.org/2000/svg" viewBox="0 0 43.699 39.557">
  <defs>
    <style>
      .cls-1 {
        fill: #fff;
      }
    </style>
  </defs>
  <path id="Path_55" data-name="Path 55" class="cls-1" d="M37.252,5.02A24.9,24.9,0,0,0,21.858,0,24.9,24.9,0,0,0,6.464,5.02C2.29,8.314,0,12.682,0,17.349S2.29,26.4,6.464,29.679a23.174,23.174,0,0,0,3.118,2.043.668.668,0,0,1,.352.6l-.282,6.552a.655.655,0,0,0,1.074.528l5.918-4.967a.629.629,0,0,1,.528-.141,27.219,27.219,0,0,0,4.668.387,24.9,24.9,0,0,0,15.394-5.02C41.409,26.385,43.7,22,43.7,17.332,43.734,12.682,41.427,8.314,37.252,5.02ZM11.836,20.555a3.03,3.03,0,1,1,3.03-3.03A3.029,3.029,0,0,1,11.836,20.555Zm10.339,0a3.03,3.03,0,1,1,3.03-3.03A3.029,3.029,0,0,1,22.175,20.555Zm10.374,0a3.03,3.03,0,1,1,3.029-3.03A3.029,3.029,0,0,1,32.55,20.555Z"/>
</svg>
