<svg id="Group_27" data-name="Group 27" xmlns="http://www.w3.org/2000/svg" viewBox="0 0 37.225 43.165">
  <defs>
    <style>
      .cls-1 {
        fill: #fff;
      }
    </style>
  </defs>
  <path id="Path_51" data-name="Path 51" class="cls-1" d="M75.3,9.169s7.067,2.33,4.021,7.113c0,0,7.92-4.508-.883-8,0,0-8.575-2.833-1.828-8.286C76.6,0,67.825,6.306,75.3,9.169Z" transform="translate(-61.276)"/>
  <path id="Path_52" data-name="Path 52" class="cls-1" d="M56.4,52.859c.107.5.533.96,1.477,1.325,0,0,2.513.822,2.391,2.528a2.007,2.007,0,0,1-.076.4,3.071,3.071,0,0,1-.168.426.971.971,0,0,1-.122.213s3.96-2.254-.442-4.006c0,0-4.28-1.416-.914-4.143a.189.189,0,0,1-.046.03.21.21,0,0,1-.061.046c-.015.015-.03.015-.03.03-.03.015-.061.046-.091.061l-.046.046c-.594.487-1.965,1.736-1.873,2.863A.252.252,0,0,0,56.4,52.859Z" transform="translate(-47.797 -42.045)"/>
  <path id="Path_53" data-name="Path 53" class="cls-1" d="M31.422,118.108a7.5,7.5,0,0,0-.822-.076c.152-.914.259-1.63.32-2.041a1.668,1.668,0,0,0,.061-.411h0a1.426,1.426,0,0,0-.274-.853,1.2,1.2,0,0,0-.366-.32.915.915,0,0,0-.411-.107H1.036a1.188,1.188,0,0,0-.335.061h0a1.193,1.193,0,0,0-.655.807,1.976,1.976,0,0,0-.046.4v.03a1.283,1.283,0,0,0,.061.411c.091.609.274,1.843.579,3.427.2,1.005.426,2.132.716,3.336.046.228.107.442.168.67s.122.457.183.7c.183.7.381,1.417.609,2.117h0c.228.731.472,1.462.731,2.163,1.279,3.427,3,6.351,5.255,6.93a1.178,1.178,0,0,0,.731.914h.015a.542.542,0,0,0,.152.03H21.811a1.133,1.133,0,0,0,.914-.944c1.554-.4,2.863-1.919,3.93-3.96.03-.061.061-.107.091-.168l2.635.4.35.046a5.162,5.162,0,0,0,.685.03,6.007,6.007,0,0,0,.914-.061,6.832,6.832,0,0,0,5.818-5.742,6.038,6.038,0,0,0,.076-1.036A6.836,6.836,0,0,0,31.422,118.108Zm-1.736,11.378-2.041-.3a52.842,52.842,0,0,0,2.544-8.971,4.5,4.5,0,0,1,.9.046,4.668,4.668,0,1,1-1.4,9.23Z" transform="translate(0 -96.891)"/>
  <path id="Path_54" data-name="Path 54" class="cls-1" d="M30.229,265H1.336a1.021,1.021,0,1,0,0,2.041H6.3a.928.928,0,0,0,.107.426.6.6,0,0,0,.533.335H24.624a.722.722,0,0,0,.64-.777h4.965a1.013,1.013,0,1,0,0-2.026Z" transform="translate(-0.254 -224.638)"/>
</svg>
