<svg xmlns="http://www.w3.org/2000/svg" viewBox="0 0 56.902 54.745">
  <defs>
    <style>
      .cls-1 {
        fill: #fff;
        fill-rule: evenodd;
      }
    </style>
  </defs>
  <g id="Group_26" data-name="Group 26" transform="translate(-0.036)">
    <g id="Group_13" data-name="Group 13" transform="translate(21.456 0)">
      <g id="Group_12" data-name="Group 12" transform="translate(0 2.571)">
        <g id="Group_11" data-name="Group 11" transform="translate(0 2.555)">
          <path id="Path_31" data-name="Path 31" class="cls-1" d="M135.252,33.649a1.628,1.628,0,0,1,1.054-1.15l1.086-.4a4.169,4.169,0,0,0-.144,1.1,4.39,4.39,0,0,0,.8,2.523l-.543,2.028,1.821,3.322a1.52,1.52,0,1,1-2.635,1.517l-2.284-3.753-.032-.064a1.638,1.638,0,0,1-.16-1.23Z" transform="translate(-134.159 -32.1)"/>
          <path id="Path_32" data-name="Path 32" class="cls-1" d="M193.042,33.649a1.628,1.628,0,0,0-1.054-1.15l-1.086-.4a4.169,4.169,0,0,1,.144,1.1,4.39,4.39,0,0,1-.8,2.523l.543,2.028-1.821,3.322a1.52,1.52,0,1,0,2.635,1.517l2.284-3.753.032-.064a1.638,1.638,0,0,0,.16-1.23Z" transform="translate(-180.052 -32.1)"/>
        </g>
        <path id="Path_33" data-name="Path 33" class="cls-1" d="M160.3,16.1a3.537,3.537,0,0,1,3.4,3.657,3.411,3.411,0,1,1-6.8,0A3.538,3.538,0,0,1,160.3,16.1Z" transform="translate(-153.268 -16.1)"/>
      </g>
      <path id="Path_34" data-name="Path 34" class="cls-1" d="M140.192,2.523a1.028,1.028,0,0,1-1.2-.8,1.028,1.028,0,0,1,.8-1.2A28.022,28.022,0,0,1,145.207,0a27.465,27.465,0,0,1,5.478.543,1.018,1.018,0,1,1-.4,2,25.943,25.943,0,0,0-5.078-.5A24.042,24.042,0,0,0,140.192,2.523Z" transform="translate(-138.205 0)"/>
    </g>
    <g id="Group_16" data-name="Group 16" transform="translate(0.036 14.261)">
      <g id="Group_15" data-name="Group 15" transform="translate(3.466 1.958)">
        <g id="Group_14" data-name="Group 14" transform="translate(1.415)">
          <path id="Path_35" data-name="Path 35" class="cls-1" d="M31.414,159.123a1.594,1.594,0,0,1-.767-1.357L30.6,156.6a4.876,4.876,0,0,0,1.006.479,4.422,4.422,0,0,0,2.651.032l1.757,1.134,3.721-.7a1.5,1.5,0,0,1,1.821,1.31,1.52,1.52,0,0,1-1.2,1.677l-4.28,1.006-.064.016a1.7,1.7,0,0,1-1.23-.224Z" transform="translate(-30.6 -147.811)"/>
          <path id="Path_36" data-name="Path 36" class="cls-1" d="M47.44,101.57a1.588,1.588,0,0,0-1.421.655l-.719.91a4.214,4.214,0,0,1,1.086.208,4.292,4.292,0,0,1,2.156,1.533l2.092.112,2.6,2.747A1.527,1.527,0,0,0,55.5,105.69l-2.875-3.338-.048-.048a1.663,1.663,0,0,0-1.118-.543Z" transform="translate(-42.952 -101.564)"/>
        </g>
        <path id="Path_37" data-name="Path 37" class="cls-1" d="M21.89,116.9a3.671,3.671,0,0,1,6.963,2.268A3.671,3.671,0,0,1,21.89,116.9Z" transform="translate(-21.737 -112.516)"/>
      </g>
      <path id="Path_38" data-name="Path 38" class="cls-1" d="M2.059,100.449a1,1,0,0,1-1.134.878,1,1,0,0,1-.878-1.134,29.015,29.015,0,0,1,1.166-5.318,27.772,27.772,0,0,1,2.2-5.046,1.011,1.011,0,0,1,1.773.974,25.956,25.956,0,0,0-3.13,9.646Z" transform="translate(-0.036 -89.302)"/>
    </g>
    <g id="Group_19" data-name="Group 19" transform="translate(7.266 36.454)">
      <g id="Group_18" data-name="Group 18" transform="translate(3.36)">
        <g id="Group_17" data-name="Group 17">
          <path id="Path_39" data-name="Path 39" class="cls-1" d="M113.451,261.485a1.58,1.58,0,0,1-1.533.3l-1.118-.319a5.314,5.314,0,0,0,.767-.814,4.382,4.382,0,0,0,.846-2.507l1.629-1.31.479-3.753a1.52,1.52,0,0,1,1.8-1.341,1.538,1.538,0,0,1,1.23,1.661l-.367,4.392v.064a1.582,1.582,0,0,1-.591,1.086Z" transform="translate(-103.701 -247.97)"/>
          <path id="Path_40" data-name="Path 40" class="cls-1" d="M66.469,234.789a1.626,1.626,0,0,0,.176,1.549l.655.958a4.2,4.2,0,0,1,.543-.974,4.352,4.352,0,0,1,2.124-1.581l.751-1.948,3.418-1.613A1.519,1.519,0,1,0,72.9,228.4l-4.056,1.693-.064.032a1.613,1.613,0,0,0-.862.91Z" transform="translate(-66.349 -228.268)"/>
        </g>
        <path id="Path_41" data-name="Path 41" class="cls-1" d="M75.038,277.453a3.553,3.553,0,0,1-.607-4.967,3.515,3.515,0,0,1,4.9-.958,3.669,3.669,0,0,1-4.3,5.925Z" transform="translate(-72.522 -264.097)"/>
      </g>
      <path id="Path_42" data-name="Path 42" class="cls-1" d="M55.256,297.683a1.011,1.011,0,0,1-.846,1.837,28.342,28.342,0,0,1-4.711-2.747,28.856,28.856,0,0,1-4.12-3.657,1.017,1.017,0,0,1,1.485-1.389,25.617,25.617,0,0,0,3.817,3.386A26.178,26.178,0,0,0,55.256,297.683Z" transform="translate(-45.308 -281.324)"/>
    </g>
    <g id="Group_22" data-name="Group 22" transform="translate(32.505 36.454)">
      <g id="Group_21" data-name="Group 21">
        <g id="Group_20" data-name="Group 20">
          <path id="Path_43" data-name="Path 43" class="cls-1" d="M244.153,234.789a1.626,1.626,0,0,1-.176,1.549l-.655.958a4.2,4.2,0,0,0-.543-.974,4.352,4.352,0,0,0-2.124-1.581l-.751-1.948-3.418-1.613a1.519,1.519,0,1,1,1.23-2.779l4.056,1.693.064.032a1.613,1.613,0,0,1,.862.91Z" transform="translate(-230.427 -228.268)"/>
          <path id="Path_44" data-name="Path 44" class="cls-1" d="M207.462,261.485a1.58,1.58,0,0,0,1.533.3l1.118-.319a4.137,4.137,0,0,1-.767-.814,4.382,4.382,0,0,1-.846-2.507l-1.629-1.31-.479-3.753a1.52,1.52,0,0,0-1.8-1.341,1.538,1.538,0,0,0-1.23,1.661l.367,4.392v.064a1.582,1.582,0,0,0,.591,1.086Z" transform="translate(-203.35 -247.97)"/>
        </g>
        <path id="Path_45" data-name="Path 45" class="cls-1" d="M244.6,277.512a3.674,3.674,0,1,1,.591-4.967A3.544,3.544,0,0,1,244.6,277.512Z" transform="translate(-233.271 -264.156)"/>
      </g>
      <path id="Path_46" data-name="Path 46" class="cls-1" d="M253.965,291.8a1.017,1.017,0,1,1,1.485,1.389,28.059,28.059,0,0,1-8.815,6.388,1.011,1.011,0,1,1-.846-1.837,25.9,25.9,0,0,0,8.177-5.941Z" transform="translate(-238.515 -281.378)"/>
    </g>
    <g id="Group_25" data-name="Group 25" transform="translate(39.147 14.277)">
      <g id="Group_24" data-name="Group 24" transform="translate(0 1.942)">
        <g id="Group_23" data-name="Group 23">
          <path id="Path_47" data-name="Path 47" class="cls-1" d="M253.379,101.57a1.588,1.588,0,0,1,1.421.655l.719.91a4.214,4.214,0,0,0-1.086.208,4.292,4.292,0,0,0-2.156,1.533l-2.092.112-2.587,2.747a1.527,1.527,0,0,1-2.268-2.044l2.875-3.338.048-.048a1.663,1.663,0,0,1,1.118-.543Z" transform="translate(-244.937 -101.564)"/>
          <path id="Path_48" data-name="Path 48" class="cls-1" d="M267.382,159.123a1.594,1.594,0,0,0,.767-1.357l.048-1.166a4.876,4.876,0,0,1-1.006.479,4.422,4.422,0,0,1-2.651.032l-1.757,1.134-3.721-.7a1.5,1.5,0,0,0-1.821,1.31,1.52,1.52,0,0,0,1.2,1.677l4.28,1.006.064.016a1.7,1.7,0,0,0,1.23-.224Z" transform="translate(-255.267 -147.811)"/>
        </g>
        <path id="Path_49" data-name="Path 49" class="cls-1" d="M296.253,116.9a3.671,3.671,0,1,1-4.535-2.108A3.561,3.561,0,0,1,296.253,116.9Z" transform="translate(-282.078 -112.516)"/>
      </g>
      <path id="Path_50" data-name="Path 50" class="cls-1" d="M323.529,90.9a1.011,1.011,0,0,1,1.773-.974,28.7,28.7,0,0,1,2.172,4.983,29.556,29.556,0,0,1,1.182,5.366,1.014,1.014,0,0,1-2.012.256,25.654,25.654,0,0,0-1.1-5A24.782,24.782,0,0,0,323.529,90.9Z" transform="translate(-310.871 -89.402)"/>
    </g>
  </g>
</svg>
