<svg xmlns="http://www.w3.org/2000/svg" viewBox="0 0 318.998 58.691">
  <defs>
    <style>
      .cls-1 {
        fill: #fff;
      }

      .cls-2 {
        fill: #ff2d16;
      }
    </style>
  </defs>
  <g id="Group_5" data-name="Group 5" transform="translate(-227.002 322.328)">
    <path id="Path_22" data-name="Path 22" class="cls-1" d="M15.131,3.865a1.7,1.7,0,0,1-1.119.424H1.519V49.17a1.491,1.491,0,0,1-.463,1.081,1.471,1.471,0,0,1-1.079.462h-10.1a1.479,1.479,0,0,1-1.081-.462,1.486,1.486,0,0,1-.459-1.081V4.289H-24.24a1.551,1.551,0,0,1-1.078-.424,1.341,1.341,0,0,1-.46-1.043v-7.94a1.348,1.348,0,0,1,.46-1.043,1.56,1.56,0,0,1,1.078-.425H14.012a1.709,1.709,0,0,1,1.119.425,1.311,1.311,0,0,1,.5,1.043v7.94a1.3,1.3,0,0,1-.5,1.043" transform="translate(252.78 -315.049)"/>
    <path id="Path_23" data-name="Path 23" class="cls-1" d="M15,4.408a1.567,1.567,0,0,1-.846.194h-.23q-2.778-.155-6.943-.389t-9.1-.232A13.414,13.414,0,0,0-6.321,4.6,7.11,7.11,0,0,0-9.52,6.72a10.124,10.124,0,0,0-2.006,4.05,24.431,24.431,0,0,0-.692,6.324v9.638a22.028,22.028,0,0,0,.809,6.556A11.33,11.33,0,0,0-9.328,37.3a6.632,6.632,0,0,0,2.815,2,8.84,8.84,0,0,0,2.931.541c2.1,0,4.09-.079,5.937-.233V23.361a1.544,1.544,0,0,1,.425-1.079,1.356,1.356,0,0,1,1.044-.462h9.868a1.584,1.584,0,0,1,1.543,1.541V47.784a1.674,1.674,0,0,1-1.543,1.773q-3.164.619-7.325,1.119a84.489,84.489,0,0,1-9.949.506,25.841,25.841,0,0,1-4.666-.465,21.809,21.809,0,0,1-4.937-1.546,20.113,20.113,0,0,1-4.663-2.926,19.523,19.523,0,0,1-3.971-4.551,22.676,22.676,0,0,1-2.742-6.44,33.35,33.35,0,0,1-1-8.6V17.094A30.42,30.42,0,0,1-23.477,4.946a19.966,19.966,0,0,1,5.437-7.517,19.209,19.209,0,0,1,7.557-3.856A33.612,33.612,0,0,1-2.115-7.509a63.8,63.8,0,0,1,9.871.655Q11.84-6.192,14-5.736c.876.157,1.311.541,1.311,1.162V3.6A.889.889,0,0,1,15,4.408" transform="translate(344.405 -314.819)"/>
    <path id="Path_24" data-name="Path 24" class="cls-1" d="M12.293,21.088a2.4,2.4,0,0,1-1,.375q-1.545.155-4.783.452t-8.56.3A21.562,21.562,0,0,1-9.07,21.063a15.045,15.045,0,0,1-6.051-3.936,19.778,19.778,0,0,1-4.244-7.364A35.839,35.839,0,0,1-20.944-1.763V-11.945a35.884,35.884,0,0,1,1.579-11.531,19.778,19.778,0,0,1,4.244-7.364A15.054,15.054,0,0,1-9.07-34.772a21.562,21.562,0,0,1,7.018-1.155q5.323,0,8.56.3l4.783.448a2.5,2.5,0,0,1,1,.379,1.011,1.011,0,0,1,.46.9v.9c0,.457-.141.74-.424.841a2.219,2.219,0,0,1-1.039.076c-.72-.048-1.595-.129-2.622-.232s-2.136-.178-3.317-.229-2.417-.1-3.7-.156-2.517-.078-3.7-.078a16.174,16.174,0,0,0-6.053,1.124,12.56,12.56,0,0,0-4.935,3.6,17.534,17.534,0,0,0-3.315,6.421,33.657,33.657,0,0,0-1.2,9.666V-1.752a33.65,33.65,0,0,0,1.2,9.669,17.505,17.505,0,0,0,3.315,6.418,12.6,12.6,0,0,0,4.935,3.6,16.2,16.2,0,0,0,6.053,1.12c1.184,0,2.414-.025,3.7-.076s2.52-.1,3.7-.156,2.287-.113,3.317-.19,1.9-.167,2.622-.271a2.215,2.215,0,0,1,1.039.079c.282.1.424.382.424.84v.906a1.011,1.011,0,0,1-.46.9" transform="translate(390.301 -286.09)"/>
    <path id="Path_25" data-name="Path 25" class="cls-1" d="M13.349,8.979A34.645,34.645,0,0,0,12.114-.96,17.287,17.287,0,0,0,8.683-7.5a12.585,12.585,0,0,0-5.205-3.556A18.95,18.95,0,0,0-3-12.137a18.946,18.946,0,0,0-6.48,1.084,12.575,12.575,0,0,0-5.2,3.556A17.22,17.22,0,0,0-18.113-.96a34.529,34.529,0,0,0-1.236,9.939v9.588a34.43,34.43,0,0,0,1.236,9.98,17.206,17.206,0,0,0,3.431,6.5,12.537,12.537,0,0,0,5.2,3.56A18.946,18.946,0,0,0-3,39.685,18.95,18.95,0,0,0,3.478,38.6a12.547,12.547,0,0,0,5.205-3.56,17.273,17.273,0,0,0,3.431-6.5,34.545,34.545,0,0,0,1.235-9.98Zm3.393,9.577a36.74,36.74,0,0,1-1.465,11.066,20.463,20.463,0,0,1-4.088,7.519,15.844,15.844,0,0,1-6.248,4.317A22.026,22.026,0,0,1-3,42.848a22.055,22.055,0,0,1-7.944-1.39,15.856,15.856,0,0,1-6.245-4.317,20.417,20.417,0,0,1-4.088-7.519,36.69,36.69,0,0,1-1.465-11.066V8.995A36.665,36.665,0,0,1-21.277-2.073,20.41,20.41,0,0,1-17.189-9.59a15.88,15.88,0,0,1,6.245-4.32A22.021,22.021,0,0,1-3-15.3,21.991,21.991,0,0,1,4.941-13.91a15.868,15.868,0,0,1,6.248,4.32,20.456,20.456,0,0,1,4.088,7.517A36.715,36.715,0,0,1,16.742,8.995Z" transform="translate(430.81 -306.72)"/>
    <path id="Path_26" data-name="Path 26" class="cls-1" d="M16.13,21.178a1.184,1.184,0,0,1-.963.422h-.773a1.181,1.181,0,0,1-.965-.422,1.59,1.59,0,0,1-.344-1.041V-32.3a.479.479,0,0,0-.543-.54c-.259,0-.514.232-.77.692L-1.568-4A5.419,5.419,0,0,1-3.306-1.765a4.15,4.15,0,0,1-2.2.541,4.158,4.158,0,0,1-2.2-.541A5.39,5.39,0,0,1-9.435-4l-13.342-28.15c-.259-.46-.514-.692-.773-.692a.477.477,0,0,0-.538.54v52.44a1.584,1.584,0,0,1-.349,1.041,1.176,1.176,0,0,1-.96.422h-.774a1.2,1.2,0,0,1-.966-.422,1.606,1.606,0,0,1-.343-1.041V-32.3A3.552,3.552,0,0,1-26.4-35.155a4.219,4.219,0,0,1,2.853-.925,3.42,3.42,0,0,1,2.236.692A4.664,4.664,0,0,1-20-33.69l13.5,28.3q.467,1,1,1c.357,0,.694-.335,1-1L8.995-33.69a4.681,4.681,0,0,1,1.311-1.7,3.42,3.42,0,0,1,2.236-.692,4.219,4.219,0,0,1,2.853.925A3.548,3.548,0,0,1,16.476-32.3v52.44a1.591,1.591,0,0,1-.346,1.041" transform="translate(485.828 -285.937)"/>
    <path id="Path_27" data-name="Path 27" class="cls-1" d="M17.985,20.937a.5.5,0,0,1-.038-.233L6.452-27.1a11.974,11.974,0,0,0-2-4.477,9.133,9.133,0,0,0-3.045-2.584A12.171,12.171,0,0,0-2.3-35.358a25.635,25.635,0,0,0-3.966-.311,26.528,26.528,0,0,0-4.017.311,12.2,12.2,0,0,0-3.739,1.193,9.087,9.087,0,0,0-3.045,2.584,12.026,12.026,0,0,0-2,4.477L-30.559,20.7a.567.567,0,0,1-.04.233.329.329,0,0,0-.041.154q0,1.233,1.314,1.231h10.795a1.356,1.356,0,0,0,1-.384,2.112,2.112,0,0,0,.541-1l.754-3.442,4.217-19.77h-.036l.966-4.363.008-.032,3.731-16.888c.154-.771.513-1.155,1.082-1.155.354,0,.587.089.692.268a3.8,3.8,0,0,1,.306.887l4.7,21.283H-7.116L-9.233,8.288H1.6L4.375,20.937a2.055,2.055,0,0,0,.538,1,1.352,1.352,0,0,0,1,.384H16.71q1.314,0,1.312-1.231a.367.367,0,0,0-.038-.154" transform="translate(297.044 -286.659)"/>
    <path id="Path_28" data-name="Path 28" class="cls-2" d="M.1,8.036s-.063.078-.083.1a1.076,1.076,0,0,0-.176.706v12.5a1.841,1.841,0,0,0,.651,1.393,2.724,2.724,0,0,0,1.7.6h11.69A1.554,1.554,0,0,0,15,23.055L36.836,1.325,21.821-13.691Z" transform="translate(509.164 -287.679)"/>
  </g>
</svg>
