<svg xmlns="http://www.w3.org/2000/svg" viewBox="0 0 75.743 75.743">
  <defs>
    <style>
      .cls-1, .cls-4 {
        fill: none;
      }

      .cls-1 {
        stroke: #525252;
        stroke-width: 2px;
      }

      .cls-2 {
        fill: #525252;
      }

      .cls-3 {
        stroke: none;
      }
    </style>
  </defs>
  <g id="Group_85" data-name="Group 85" transform="translate(-312.816 151.009) rotate(-45)">
    <g id="Ellipse_2" data-name="Ellipse 2" class="cls-1" transform="translate(301.195 141.195)">
      <circle class="cls-3" cx="26.779" cy="26.779" r="26.779"/>
      <circle class="cls-4" cx="26.779" cy="26.779" r="25.779"/>
    </g>
    <g id="Group_83" data-name="Group 83" transform="translate(0.862 0.862)">
      <path id="Union_1" data-name="Union 1" class="cls-2" d="M9.183,21.425l.045-8.007a3.088,3.088,0,0,1-.036-.468,3.164,3.164,0,0,1,3.1-3.14,3.082,3.082,0,0,1,.487.039l8.646-.666a3.061,3.061,0,1,1,0,6.122l-6.089.469L15.3,21.425a3.061,3.061,0,1,1-6.122,0Z" transform="translate(307.641 145.77)"/>
      <path id="Path_79" data-name="Path 79" class="cls-2" d="M2.573-6.983A3.061,3.061,0,0,1,5.633-3.922l1.2,16.155a3.061,3.061,0,1,1-6.122,0L-.488-3.922A3.061,3.061,0,0,1,2.573-6.983Z" transform="matrix(-0.755, 0.656, -0.656, -0.755, 334.903, 168.97)"/>
    </g>
  </g>
</svg>
